<svg xmlns="http://www.w3.org/2000/svg" width="56.001" height="81.146" viewBox="0 0 56.001 81.146">
  <g id="employee" transform="translate(-17.06 21.146)">
    <path id="Path_14624" data-name="Path 14624" d="M68.141,337.284v8.393a.965.965,0,0,1-.966.964H18.026a.965.965,0,0,1-.966-.964v-8.393a9.554,9.554,0,0,1,7.267-9.268l13.214-3.272H47.66l5.389,1.335,7.825,1.937A9.554,9.554,0,0,1,68.141,337.284Z" transform="translate(0 -286.641)" fill="#b4e66e"/>
    <g id="Group_12755" data-name="Group 12755" transform="translate(17.061 39.438)">
      <path id="Path_14625" data-name="Path 14625" d="M23.652,354.362a13.05,13.05,0,0,0-3.983,9.077V372.8H18.031a.964.964,0,0,1-.964-.964v-8.393A9.546,9.546,0,0,1,23.652,354.362Z" transform="translate(-17.067 -352.233)" fill="#a0d755"/>
      <path id="Path_14626" data-name="Path 14626" d="M337.581,347.365a9.55,9.55,0,0,0-7.249-9.268l-7.806-1.937a11.578,11.578,0,0,0,11.363,13.772c.368,0,.731-.019,1.09-.052v6.843h1.638a.964.964,0,0,0,.964-.964v-6.429h0Z" transform="translate(-286.501 -336.159)" fill="#a0d755"/>
    </g>
    <path id="Path_14627" data-name="Path 14627" d="M212.992,420.273h-6.707l1.444-10.282.263-1.865h3.293l.263,1.865Z" transform="translate(-163.044 -429.273)" fill="#f2f2f0"/>
    <path id="Path_14628" data-name="Path 14628" d="M222.455,409.992h-3.819l.263-1.865h3.293Z" transform="translate(-177.95 -360.296)" fill="#e5e5da"/>
    <path id="Path_14629" data-name="Path 14629" d="M201.074,359.74l-2.1-3.645,2.1-3.645h4.209l2.1,3.645-2.1,3.645Z" transform="translate(-160.584 -311.135)" fill="#f2f2f0"/>
    <rect id="Rectangle_1608" data-name="Rectangle 1608" width="10.617" height="9.834" transform="translate(37.285 29.851)" fill="#f7c9a4"/>
    <path id="Path_14630" data-name="Path 14630" d="M316.319,143.038a4,4,0,0,1-3.084,3.9,3.925,3.925,0,0,1-.92.108,4.005,4.005,0,1,1,4-4.005Z" transform="translate(-257.107 -122.736)" fill="#ffd9b6"/>
    <path id="Path_14631" data-name="Path 14631" d="M313.27,139.148v6.812c0,.327-.011.653-.036.974a3.926,3.926,0,0,1-.92.108,4,4,0,1,1,.955-7.894Z" transform="translate(-257.111 -122.735)" fill="#f7c9a4"/>
    <path id="Path_14632" data-name="Path 14632" d="M101.129,143.038a4.005,4.005,0,0,1-4.005,4.005,3.938,3.938,0,0,1-.921-.108,4,4,0,0,1-.036-7.785,3.926,3.926,0,0,1,.957-.117A4,4,0,0,1,101.129,143.038Z" transform="translate(-67.142 -122.736)" fill="#ffd9b6"/>
    <path id="Path_14633" data-name="Path 14633" d="M124.15,143.039a4.005,4.005,0,0,1-4.005,4.005,3.939,3.939,0,0,1-.921-.108c-.024-.321-.036-.647-.036-.974v-6.811a3.926,3.926,0,0,1,.957-.117A4,4,0,0,1,124.15,143.039Z" transform="translate(-90.157 -122.736)" fill="#f7c9a4"/>
    <path id="Path_14634" data-name="Path 14634" d="M162.3,75.39V89.434a11.091,11.091,0,1,1-22.182,0V75.39Z" transform="translate(-108.614 -66.574)" fill="#ffd9b6"/>
    <g id="Group_12756" data-name="Group 12756" transform="translate(36.833 18.518)">
      <path id="Path_14635" data-name="Path 14635" d="M186.57,160.713a.877.877,0,0,1-.877-.877v-.959a.877.877,0,1,1,1.754,0v.959A.877.877,0,0,1,186.57,160.713Z" transform="translate(-185.693 -158)" fill="#493030"/>
      <path id="Path_14636" data-name="Path 14636" d="M274.185,160.713a.877.877,0,0,1-.877-.877v-.959a.877.877,0,1,1,1.754,0v.959A.877.877,0,0,1,274.185,160.713Z" transform="translate(-263.063 -158)" fill="#493030"/>
    </g>
    <path id="Path_14637" data-name="Path 14637" d="M162.3,75.39v9.747l-3.723-.623a1.308,1.308,0,0,1-1.092-1.29V81.76a.5.5,0,0,0-.435-.5,107.774,107.774,0,0,0-11.41-.819.5.5,0,0,0-.51.5v2.288a1.308,1.308,0,0,1-1.106,1.292l-3.906.611V75.39Z" transform="translate(-108.615 -66.574)" fill="#f7c9a4"/>
    <path id="Path_14638" data-name="Path 14638" d="M157.645,5.539A33.788,33.788,0,0,1,155.3,15.664c-.08.2-.163.4-.248.594l-1.742-.293a.939.939,0,0,1-.461-.213.96.96,0,0,1-.343-.737v-1.4a.962.962,0,0,0-.814-.952,105.706,105.706,0,0,0-15.121-1.091.962.962,0,0,0-.97.964v2.473a.962.962,0,0,1-.6.893.934.934,0,0,1-.212.059l-1.915.3a25.243,25.243,0,0,1-.922-7.859,9.276,9.276,0,0,1,.711-3.056,5.342,5.342,0,0,1,.77-1.249c.24-.286.54-.49.8-.749a4.482,4.482,0,0,1,1.14-.6,4.19,4.19,0,0,1,.857-1.5,3.775,3.775,0,0,1,1.536-1.03A4.174,4.174,0,0,1,139.116,0h17.7a.964.964,0,0,1,.67.271.994.994,0,0,1,.118.137c.363.507.2,1.559.19,2.151q-.021,1.492-.154,2.98.031-.351.062-.7-.031.351-.062.7.031-.351.062-.7-.032.351-.062.7C157.639,5.608,157.788,3.921,157.645,5.539Z" transform="translate(-101.354)" fill="#694b4b"/>
    <path id="Path_14639" data-name="Path 14639" d="M315.833,5.539a34.934,34.934,0,0,1-2.349,10.125c-.08.2-.163.4-.248.594l-1.742-.293a.939.939,0,0,1-.461-.213A37.707,37.707,0,0,0,313.506,0h1.5a.964.964,0,0,1,.67.271.993.993,0,0,1,.118.137c.352.5.2,1.5.19,2.08q-.019,1.527-.154,3.051Z" transform="translate(-259.516)" fill="#5b4040"/>
    <g id="Group_12757" data-name="Group 12757" transform="translate(24.289 35.572)">
      <path id="Path_14640" data-name="Path 14640" d="M80.689,462.414v5H78.882v-5a.9.9,0,1,1,1.807,0Z" transform="translate(-78.882 -442.987)" fill="#a0d755"/>
      <path id="Path_14641" data-name="Path 14641" d="M377.39,462.414v5h-1.807v-5a.9.9,0,0,1,1.807,0Z" transform="translate(-340.888 -442.987)" fill="#a0d755"/>
      <path id="Path_14642" data-name="Path 14642" d="M158.659,303.235l6.658,4.011-2.479,5.072a.964.964,0,0,1-1.557.248l-4.914-5.062a.963.963,0,0,1-.2-1.027l1.1-2.773A.964.964,0,0,1,158.659,303.235Z" transform="translate(-147.066 -303.097)" fill="#a0d755"/>
      <path id="Path_14643" data-name="Path 14643" d="M241.619,303.235l-6.658,4.011,2.479,5.072a.964.964,0,0,0,1.557.248l4.914-5.062a.963.963,0,0,0,.2-1.027l-1.1-2.773A.963.963,0,0,0,241.619,303.235Z" transform="translate(-216.71 -303.097)" fill="#a0d755"/>
    </g>
    <circle id="Ellipse_3371" data-name="Ellipse 3371" cx="8.612" cy="8.612" r="8.612" transform="translate(55.837 32.995)" fill="#00c3ff"/>
    <path id="Path_14644" data-name="Path 14644" d="M386.084,329.972a.9.9,0,0,1-.639-.265l-2.046-2.046a.9.9,0,0,1,1.278-1.278l1.407,1.407,5.183-5.183a.9.9,0,0,1,1.278,1.278l-5.822,5.822A.9.9,0,0,1,386.084,329.972Z" transform="translate(-323.147 -284.557)" fill="#f2f2f0"/>
  </g>
</svg>
