<svg xmlns="http://www.w3.org/2000/svg" width="58.741" height="60" viewBox="0 0 58.741 60">
  <g id="time-and-date" transform="translate(-5.373)">
    <circle id="Ellipse_3369" data-name="Ellipse 3369" cx="29.37" cy="29.37" r="29.37" transform="translate(5.373 1.26)" fill="#0ed2b3"/>
    <path id="Path_14594" data-name="Path 14594" d="M121.682,90.749a29.371,29.371,0,0,1-51.1,19.762A29.37,29.37,0,0,0,111.01,68.1,29.311,29.311,0,0,1,121.682,90.749Z" transform="translate(-57.568 -60.119)" fill="#0ab69f"/>
    <circle id="Ellipse_3370" data-name="Ellipse 3370" cx="22.628" cy="22.628" r="22.628" transform="translate(12.115 8.002)" fill="#f9f3f1"/>
    <g id="Group_12753" data-name="Group 12753" transform="translate(13.694 9.581)">
      <path id="Path_14595" data-name="Path 14595" d="M174.939,180.912a4.567,4.567,0,0,1,4.842,4.5c0,4.864-7.331,6.448-7.331,9.05v.86H179.1a.972.972,0,0,1,.792,1.041c0,.566-.385,1.086-.792,1.086h-8.055c-.452,0-1.063-.317-1.063-.792v-2.195c0-3.665,7.4-5.5,7.4-8.982a2.3,2.3,0,0,0-2.444-2.376,2.089,2.089,0,0,0-2.285,2.24c0,.452-.475.905-1.267.905-.634,0-1.086-.317-1.086-1.335,0-2.421,2.172-4,4.638-4Z" transform="translate(-159.015 -169.292)" fill="#596c76"/>
      <path id="Path_14596" data-name="Path 14596" d="M261.727,193.741h-5.566a.82.82,0,0,1-.837-.882,1.032,1.032,0,0,1,.136-.5l5.475-10.792a1.146,1.146,0,0,1,1.041-.656c.452,0,1.2.362,1.2.928a.832.832,0,0,1-.113.362l-4.661,9.3h3.326v-3.122c0-.566.588-.792,1.2-.792.588,0,1.2.226,1.2.792V191.5h1.109c.543,0,.814.566.814,1.131,0,.543-.385,1.109-.814,1.109h-1.109v2.919c0,.52-.611.792-1.2.792-.611,0-1.2-.272-1.2-.792Z" transform="translate(-234.354 -169.293)" fill="#596c76"/>
      <path id="Path_14597" data-name="Path 14597" d="M249.172,87.174a.906.906,0,0,1-.906-.906v-3.6a.906.906,0,1,1,1.812,0v3.6A.906.906,0,0,1,249.172,87.174Z" transform="translate(-228.123 -81.759)" fill="#596c76"/>
      <path id="Path_14598" data-name="Path 14598" d="M249.172,400.2a.906.906,0,0,1-.906-.906v-3.6a.906.906,0,0,1,1.812,0v3.6A.906.906,0,0,1,249.172,400.2Z" transform="translate(-228.123 -358.098)" fill="#596c76"/>
      <path id="Path_14599" data-name="Path 14599" d="M393.912,255.455h-3.6a.906.906,0,1,1,0-1.812h3.6a.906.906,0,1,1,0,1.812Z" transform="translate(-352.721 -233.5)" fill="#596c76"/>
      <path id="Path_14600" data-name="Path 14600" d="M80.891,255.455h-3.6a.906.906,0,1,1,0-1.812h3.6a.906.906,0,1,1,0,1.812Z" transform="translate(-76.382 -233.5)" fill="#596c76"/>
      <path id="Path_14601" data-name="Path 14601" d="M168.661,116.007a.906.906,0,0,1-.786-.453l-.952-1.649a.906.906,0,1,1,1.569-.906l.952,1.649a.906.906,0,0,1-.784,1.359Z" transform="translate(-156.206 -108.937)" fill="#596c76"/>
      <path id="Path_14602" data-name="Path 14602" d="M323.461,384.127a.906.906,0,0,1-.786-.453l-.952-1.649a.906.906,0,1,1,1.569-.906l.952,1.649a.906.906,0,0,1-.784,1.359Z" transform="translate(-292.865 -345.638)" fill="#596c76"/>
      <path id="Path_14603" data-name="Path 14603" d="M109.721,174.944a.9.9,0,0,1-.452-.122l-1.649-.952a.906.906,0,1,1,.906-1.569l1.649.952a.906.906,0,0,1-.454,1.691Z" transform="translate(-103.559 -161.584)" fill="#596c76"/>
      <path id="Path_14604" data-name="Path 14604" d="M377.843,329.744a.9.9,0,0,1-.452-.122l-1.649-.952a.906.906,0,0,1,.906-1.569l1.649.952a.906.906,0,0,1-.454,1.691Z" transform="translate(-340.261 -298.243)" fill="#596c76"/>
      <path id="Path_14605" data-name="Path 14605" d="M108.075,329.744a.906.906,0,0,1-.454-1.691l1.649-.952a.906.906,0,1,1,.906,1.569l-1.649.952A.9.9,0,0,1,108.075,329.744Z" transform="translate(-103.56 -298.243)" fill="#596c76"/>
      <path id="Path_14606" data-name="Path 14606" d="M376.2,174.945a.906.906,0,0,1-.454-1.691l1.649-.952a.906.906,0,1,1,.906,1.569l-1.649.952A.9.9,0,0,1,376.2,174.945Z" transform="translate(-340.262 -161.584)" fill="#596c76"/>
      <path id="Path_14607" data-name="Path 14607" d="M167.707,384.127a.906.906,0,0,1-.784-1.359l.952-1.649a.906.906,0,0,1,1.569.906l-.952,1.649A.906.906,0,0,1,167.707,384.127Z" transform="translate(-156.206 -345.637)" fill="#596c76"/>
    </g>
    <path id="Path_14608" data-name="Path 14608" d="M324.248,12.184l-1.9-9.68a3.1,3.1,0,1,0-6.042,1.366l1.2,4.671a.862.862,0,0,1-.779,1.074l-4.812.31a3.1,3.1,0,1,0,.578,6.168l9.79-1.2A2.284,2.284,0,0,0,324.248,12.184Z" transform="translate(-268.062)" fill="#01998d"/>
    <path id="Path_14609" data-name="Path 14609" d="M322.288,14.894l-9.79,1.2a3.141,3.141,0,0,1-.382.023,3.1,3.1,0,0,1-3.021-3.767,2.618,2.618,0,0,0,2.26,1.3,2.688,2.688,0,0,0,.324-.021l8.279-1.017a1.932,1.932,0,0,0,1.661-2.288l-1.6-8.187a2.616,2.616,0,0,0-1.708-1.97c.083-.028.168-.053.255-.075a3.1,3.1,0,0,1,3.793,2.41l1.9,9.679A2.285,2.285,0,0,1,322.288,14.894Z" transform="translate(-268.064 -0.004)" fill="#008b81"/>
  </g>
</svg>
