<svg xmlns="http://www.w3.org/2000/svg" width="70.297" height="60" viewBox="0 0 70.297 60">
  <g id="school_1_" data-name="school (1)" transform="translate(-3.221 -80.495)">
    <g id="Group_12746" data-name="Group 12746" transform="translate(3.221 80.495)">
      <g id="Group_12745" data-name="Group 12745" transform="translate(0 0)">
        <g id="Group_12744" data-name="Group 12744">
          <g id="Group_12742" data-name="Group 12742">
            <g id="Group_12741" data-name="Group 12741">
              <g id="Group_12733" data-name="Group 12733">
                <g id="Group_12731" data-name="Group 12731">
                  <g id="Group_12728" data-name="Group 12728" transform="translate(3.224 19.571)">
                    <rect id="Rectangle_1600" data-name="Rectangle 1600" width="63.85" height="38.066" fill="#ededed"/>
                  </g>
                  <rect id="Rectangle_1601" data-name="Rectangle 1601" width="7.355" height="38.066" transform="translate(59.718 19.571)" fill="#d6d6d6"/>
                  <path id="Path_14560" data-name="Path 14560" d="M82.071,123.615H34.587a1.936,1.936,0,0,0-1.6.852L26.4,134.2h63.85l-6.579-9.729A1.936,1.936,0,0,0,82.071,123.615Z" transform="translate(-23.18 -117.619)" fill="#0c4796"/>
                  <g id="Group_12729" data-name="Group 12729" transform="translate(0 15.635)">
                    <path id="Path_14561" data-name="Path 14561" d="M72.472,197.1H4.267a1.046,1.046,0,0,1-1.046-1.046v-2.067a1.046,1.046,0,0,1,1.046-1.046h68.2a1.046,1.046,0,0,1,1.046,1.046v2.067A1.046,1.046,0,0,1,72.472,197.1Z" transform="translate(-3.221 -192.94)" fill="#bfc2c5"/>
                  </g>
                  <g id="Group_12730" data-name="Group 12730" transform="translate(21.38 15.635)">
                    <rect id="Rectangle_1602" data-name="Rectangle 1602" width="27.536" height="42.002" fill="#ededed"/>
                  </g>
                  <rect id="Rectangle_1603" data-name="Rectangle 1603" width="7.355" height="42.002" transform="translate(41.562 15.635)" fill="#d6d6d6"/>
                  <path id="Path_14562" data-name="Path 14562" d="M151.42,96.131,132.489,80.922a1.936,1.936,0,0,0-2.426,0L111.133,96.131Z" transform="translate(-96.128 -80.495)" fill="#b6b7db"/>
                </g>
                <g id="Group_12732" data-name="Group 12732" transform="translate(29.767 21.272)">
                  <circle id="Ellipse_3361" data-name="Ellipse 3361" cx="5.381" cy="5.381" r="5.381" transform="translate(0 0)" fill="#b6b7db"/>
                </g>
                <path id="Path_14563" data-name="Path 14563" d="M214.549,378.347H198.581V363a1.922,1.922,0,0,1,1.922-1.922h12.124A1.922,1.922,0,0,1,214.549,363v15.347Z" transform="translate(-171.417 -322.063)" fill="#b6b7db"/>
                <rect id="Rectangle_1604" data-name="Rectangle 1604" width="2.122" height="17.269" transform="translate(34.088 39.015)" fill="#0c4796"/>
              </g>
              <g id="Group_12740" data-name="Group 12740" transform="translate(7.381 25.654)">
                <g id="Group_12739" data-name="Group 12739">
                  <g id="Group_12737" data-name="Group 12737" transform="translate(0 16.13)">
                    <path id="Path_14566" data-name="Path 14566" d="M65,390.819H57.427a1.127,1.127,0,0,1-1.127-1.127v-7.575a1.127,1.127,0,0,1,1.127-1.127H65a1.127,1.127,0,0,1,1.127,1.127v7.575A1.127,1.127,0,0,1,65,390.819Z" transform="translate(-56.3 -380.99)" fill="#b6b7db"/>
                    <rect id="Rectangle_1607" data-name="Rectangle 1607" width="2.122" height="9.829" transform="translate(3.854 0)" fill="#0a3582"/>
                  </g>
                  <g id="Group_12747" data-name="Group 12747">
                    <path id="Path_14566-2" data-name="Path 14566" d="M65,390.819H57.427a1.127,1.127,0,0,1-1.127-1.127v-7.575a1.127,1.127,0,0,1,1.127-1.127H65a1.127,1.127,0,0,1,1.127,1.127v7.575A1.127,1.127,0,0,1,65,390.819Z" transform="translate(-56.3 -380.99)" fill="#b6b7db"/>
                    <rect id="Rectangle_1607-2" data-name="Rectangle 1607" width="2.122" height="9.829" transform="translate(3.854 0)" fill="#0a3582"/>
                  </g>
                  <g id="Group_12748" data-name="Group 12748" transform="translate(45.747)">
                    <path id="Path_14566-3" data-name="Path 14566" d="M65,390.819H57.427a1.127,1.127,0,0,1-1.127-1.127v-7.575a1.127,1.127,0,0,1,1.127-1.127H65a1.127,1.127,0,0,1,1.127,1.127v7.575A1.127,1.127,0,0,1,65,390.819Z" transform="translate(-56.3 -380.99)" fill="#b6b7db"/>
                    <rect id="Rectangle_1607-3" data-name="Rectangle 1607" width="2.122" height="9.829" transform="translate(3.854 0)" fill="#0a3582"/>
                  </g>
                  <g id="Group_12749" data-name="Group 12749" transform="translate(45.747 16.13)">
                    <path id="Path_14566-4" data-name="Path 14566" d="M65,390.819H57.427a1.127,1.127,0,0,1-1.127-1.127v-7.575a1.127,1.127,0,0,1,1.127-1.127H65a1.127,1.127,0,0,1,1.127,1.127v7.575A1.127,1.127,0,0,1,65,390.819Z" transform="translate(-56.3 -380.99)" fill="#b6b7db"/>
                    <rect id="Rectangle_1607-4" data-name="Rectangle 1607" width="2.122" height="9.829" transform="translate(3.854 0)" fill="#0a3582"/>
                  </g>
                </g>
              </g>
            </g>
          </g>
          <g id="Group_12743" data-name="Group 12743" transform="translate(0 55.841)">
            <path id="Path_14568" data-name="Path 14568" d="M72.472,486.247H4.267A1.046,1.046,0,0,1,3.221,485.2v-2.067a1.046,1.046,0,0,1,1.046-1.046h68.2a1.046,1.046,0,0,1,1.046,1.046V485.2A1.046,1.046,0,0,1,72.472,486.247Z" transform="translate(-3.221 -482.088)" fill="#bfc2c5"/>
          </g>
        </g>
      </g>
    </g>
  </g>
</svg>
