<svg xmlns="http://www.w3.org/2000/svg" width="57.74" height="60" viewBox="0 0 57.74 60">
  <g id="cloud" transform="translate(-9.643)">
    <path id="Path_14610" data-name="Path 14610" d="M86.883,370.137v-13.59H83.209v13.59H62.937a.584.584,0,0,0-.584.584v2.506a.584.584,0,0,0,.584.584h44.219a.584.584,0,0,0,.584-.584v-2.506a.584.584,0,0,0-.584-.584Z" transform="translate(-46.533 -314.764)" fill="#bfc2c5"/>
    <path id="Path_14611" data-name="Path 14611" d="M198.354,448.6v-4.247a.667.667,0,0,1,.667-.667h3.3V441.61a.667.667,0,0,1,.667-.667h4.247a.667.667,0,0,1,.667.667v2.079h3.192a.667.667,0,0,1,.667.667V448.6a.667.667,0,0,1-.667.667H199.021A.667.667,0,0,1,198.354,448.6Z" transform="translate(-166.596 -389.27)" fill="#b3d8fb"/>
    <path id="Path_14612" data-name="Path 14612" d="M65.73,19.64A5.909,5.909,0,0,0,61.4,17.907,11.23,11.23,0,0,0,48.3,7.682a15,15,0,0,0-26.271.149,11.246,11.246,0,0,0-8.487,9.322,6.733,6.733,0,0,0,2.838,12.839l0,0H62.258C67.274,29.995,68.96,22.869,65.73,19.64Z" fill="#69d8e4"/>
    <path id="Path_14613" data-name="Path 14613" d="M107.739,196.478v-7.222a2.35,2.35,0,0,0-2.35-2.35H64.7a2.35,2.35,0,0,0-2.35,2.35v7.222a2.35,2.35,0,0,0,2.35,2.35,2.35,2.35,0,0,0-2.35,2.35V208.4a2.35,2.35,0,0,0,2.35,2.35h40.686a2.35,2.35,0,0,0,2.35-2.35v-7.222a2.35,2.35,0,0,0-2.35-2.35A2.35,2.35,0,0,0,107.739,196.478Z" transform="translate(-46.533 -165.003)" fill="#0e80ac"/>
    <path id="Path_14614" data-name="Path 14614" d="M107.739,196.478v-7.222a2.35,2.35,0,0,0-2.35-2.35H64.7a2.35,2.35,0,0,0-2.35,2.35v7.222a2.35,2.35,0,0,0,2.35,2.35,2.35,2.35,0,0,0-2.35,2.35V208.4a2.35,2.35,0,0,0,2.35,2.35h40.686a2.35,2.35,0,0,0,2.35-2.35v-7.222a2.35,2.35,0,0,0-2.35-2.35A2.35,2.35,0,0,0,107.739,196.478Z" transform="translate(-46.533 -165.003)" fill="#0e80ac"/>
    <path id="Path_14615" data-name="Path 14615" d="M191.418,19.64a5.909,5.909,0,0,0-4.326-1.733A11.23,11.23,0,0,0,173.984,7.682a15,15,0,0,0-21.969-4.772,15.01,15.01,0,0,1,17.349,7.068A11.23,11.23,0,0,1,182.471,20.2a5.908,5.908,0,0,1,4.326,1.733c2.056,2.056,2.119,5.689.6,8.06h.548c5.016,0,6.7-7.125,3.472-10.355Z" transform="translate(-125.688)" fill="#29d0df"/>
    <path id="Path_14616" data-name="Path 14616" d="M394.707,288.64h-4.631a2.35,2.35,0,0,1,2.35,2.35v7.222a2.35,2.35,0,0,1-2.35,2.35h4.631a2.35,2.35,0,0,0,2.35-2.35V290.99A2.35,2.35,0,0,0,394.707,288.64Z" transform="translate(-335.851 -254.815)" fill="#057195"/>
    <path id="Path_14617" data-name="Path 14617" d="M109.72,318.39H88.349a.905.905,0,0,1,0-1.811H109.72a.905.905,0,0,1,0,1.811Z" transform="translate(-68.684 -279.48)" fill="#d8eafb"/>
    <path id="Path_14618" data-name="Path 14618" d="M109.72,350.556H88.349a.905.905,0,1,1,0-1.811H109.72a.905.905,0,1,1,0,1.811Z" transform="translate(-68.684 -307.876)" fill="#d8eafb"/>
    <path id="Path_14619" data-name="Path 14619" d="M372.083,322.041a2.673,2.673,0,1,1,2.673-2.673A2.676,2.676,0,0,1,372.083,322.041Z" transform="translate(-317.607 -279.581)" fill="#fa6931"/>
    <path id="Path_14620" data-name="Path 14620" d="M105.389,186.906h-4.631a2.35,2.35,0,0,1,2.35,2.35v5.934a1.306,1.306,0,0,1-1.3,1.3H64.7a2.35,2.35,0,0,1-2.35-2.35v2.336a2.35,2.35,0,0,0,2.35,2.35h40.686a2.35,2.35,0,0,0,2.35-2.35v-7.222A2.35,2.35,0,0,0,105.389,186.906Z" transform="translate(-46.533 -165.003)" fill="#057195"/>
    <path id="Path_14621" data-name="Path 14621" d="M372.083,220.29a2.673,2.673,0,1,1,2.673-2.673A2.676,2.676,0,0,1,372.083,220.29Z" transform="translate(-317.607 -189.754)" fill="#fbd307"/>
    <g id="Group_12754" data-name="Group 12754" transform="translate(18.76 25.126)">
      <path id="Path_14622" data-name="Path 14622" d="M109.72,216.216H88.349a.905.905,0,1,1,0-1.811H109.72a.905.905,0,1,1,0,1.811Z" transform="translate(-87.444 -214.405)" fill="#d8eafb"/>
      <path id="Path_14623" data-name="Path 14623" d="M109.72,248.382H88.349a.905.905,0,0,1,0-1.811H109.72a.905.905,0,1,1,0,1.811Z" transform="translate(-87.444 -242.802)" fill="#d8eafb"/>
    </g>
  </g>
</svg>
