<svg xmlns="http://www.w3.org/2000/svg" width="76.8" height="60" viewBox="0 0 76.8 60">
  <g id="colleagues" transform="translate(0 -56)">
    <path id="Path_14569" data-name="Path 14569" d="M311.2,271.2,280,268.95V251.267a4.8,4.8,0,0,1,2.524-4.226L295.6,240l13.076,7.041a4.8,4.8,0,0,1,2.524,4.226Z" transform="translate(-238 -156.4)" fill="#6f6571"/>
    <path id="Path_14570" data-name="Path 14570" d="M343.074,249.274h9.6v4.609h-9.6Z" transform="translate(-291.613 -164.283)" fill="#e3aa75"/>
    <path id="Path_14571" data-name="Path 14571" d="M343.074,227.791a11.923,11.923,0,0,0,9.6,0V224h-9.6Z" transform="translate(-291.613 -142.8)" fill="#d29b6e"/>
    <path id="Path_14572" data-name="Path 14572" d="M363.242,280h-3.535l-.633,9.6h4.8Z" transform="translate(-305.213 -190.4)" fill="#8bb3ea"/>
    <path id="Path_14573" data-name="Path 14573" d="M333.487,252.8l-4.8-4.8s-4.226,1.056-1.774,7.134a1.2,1.2,0,0,0,1.731.572Z" transform="translate(-277.226 -163.2)" fill="#5d5360"/>
    <path id="Path_14574" data-name="Path 14574" d="M375.074,252.8l4.8-4.8s4.226,1.056,1.774,7.134a1.2,1.2,0,0,1-1.731.572Z" transform="translate(-318.813 -163.2)" fill="#5d5360"/>
    <path id="Path_14575" data-name="Path 14575" d="M318.14,131.094c-5.3,0-8.806-4.192-8.806-9.494V112h18.4v9.6a9.6,9.6,0,0,1-8.37,9.522A9.754,9.754,0,0,1,318.14,131.094Z" transform="translate(-262.934 -47.6)" fill="#f5b97d"/>
    <path id="Path_14576" data-name="Path 14576" d="M306.4,121.6V112H304v9.6a9.6,9.6,0,0,0,9.6,9.6,10.116,10.116,0,0,0,1.23-.078A9.626,9.626,0,0,1,306.4,121.6Z" transform="translate(-258.4 -47.6)" fill="#e3aa75"/>
    <circle id="Ellipse_3362" data-name="Ellipse 3362" cx="7.2" cy="7.2" r="7.2" transform="translate(3.6 56)" fill="#6f6571"/>
    <path id="Path_14577" data-name="Path 14577" d="M82.727,93.2c0-7.29-4.67-13.2-11.96-13.2A13.156,13.156,0,0,0,61.6,83.7a55.745,55.745,0,0,0-.931,8.6c0,6,2.81,10.5,10.1,10.5S82.727,99.2,82.727,93.2Z" transform="translate(-51.567 -20.4)" fill="#5d5360"/>
    <path id="Path_14578" data-name="Path 14578" d="M48.4,109.39a10.992,10.992,0,0,1-4.369-4.7A13.171,13.171,0,0,0,40,114.19c0,5.968,5.848,9.558,13.084,9.6Z" transform="translate(-34 -41.39)" fill="#4b3f4e"/>
    <path id="Path_14579" data-name="Path 14579" d="M50.567,280h-8.3a9.6,9.6,0,0,0-9.6,9.6v15.6h23.9V286A6,6,0,0,0,50.567,280Z" transform="translate(-27.767 -190.4)" fill="#c3ddff"/>
    <path id="Path_14580" data-name="Path 14580" d="M34.8,280H33.6a9.6,9.6,0,0,0-9.6,9.6v15.6h2.4V289.6a7.2,7.2,0,0,1,7.2-7.2h1.2Z" transform="translate(-20.4 -190.4)" fill="#a4ccff"/>
    <path id="Path_14581" data-name="Path 14581" d="M92.8,275.737a4.8,4.8,0,0,1-4.8-4.8v-1.6l9.6,1.031v.568A4.8,4.8,0,0,1,92.8,275.737Z" transform="translate(-74.8 -181.337)" fill="#b57f5f"/>
    <path id="Path_14582" data-name="Path 14582" d="M88,244.4a11.919,11.919,0,0,0,9.6,1.031V240H88Z" transform="translate(-74.8 -156.4)" fill="#9f6e50"/>
    <path id="Path_14583" data-name="Path 14583" d="M94.375,343.225H73.9a2.4,2.4,0,0,1-2.4-2.4V330.4l1.275-2.4h21.6a2.4,2.4,0,0,1,2.4,2.4v12Z" transform="translate(-60.775 -231.2)" fill="#6f6571"/>
    <path id="Path_14584" data-name="Path 14584" d="M66.4,328a2.4,2.4,0,0,0-2.4,2.4v12a2.4,2.4,0,0,0,2.4,2.4H88a2.4,2.4,0,0,0,2.4-2.4H70a3.6,3.6,0,0,1-3.6-3.6Z" transform="translate(-54.4 -231.2)" fill="#5d5360"/>
    <path id="Path_14585" data-name="Path 14585" d="M317.2,64h-6c-4.35,0-7.2,2.686-7.2,6a2.4,2.4,0,0,0,2.4,2.4h12a2.37,2.37,0,0,1,2.4,2.357V77.2a2.4,2.4,0,0,0,4.8,0V72.4A8.4,8.4,0,0,0,317.2,64Z" transform="translate(-258.4 -6.8)" fill="#9f6e50"/>
    <path id="Path_14586" data-name="Path 14586" d="M72.16,136c3.815,2.705,9.266,3.582,12.247,3.865a2.389,2.389,0,0,1,2.153,2.387V145.6a9.6,9.6,0,0,1-8.35,9.519,9.974,9.974,0,0,1-1.263.012c-5.3,0-8.947-4.3-8.947-9.606,0-2.536,1.8-6.887,1.8-6.887s.291-.353.445-.523Z" transform="translate(-57.8 -68)" fill="#f5b97d"/>
    <path id="Path_14587" data-name="Path 14587" d="M66.4,160.55v-6.962a9.3,9.3,0,0,0-2.4,6.237v.725a9.6,9.6,0,0,0,9.6,9.6,9.821,9.821,0,0,0,1.21-.081A9.607,9.607,0,0,1,66.4,160.55Z" transform="translate(-54.4 -82.95)" fill="#b57f5f"/>
    <circle id="Ellipse_3363" data-name="Ellipse 3363" cx="2.4" cy="2.4" r="2.4" transform="translate(20.4 102.8)" fill="#857e87"/>
    <path id="Path_14588" data-name="Path 14588" d="M75.6,442.4H1.2a1.2,1.2,0,1,1,0-2.4H75.6a1.2,1.2,0,1,1,0,2.4Z" transform="translate(0 -326.4)" fill="#bfc2c5"/>
    <path id="Path_14589" data-name="Path 14589" d="M300.675,343.637H279.9a2.4,2.4,0,0,1-2.4-2.4V330.4l1.575-2.4h21.6a2.4,2.4,0,0,1,2.4,2.4v12Z" transform="translate(-235.875 -231.2)" fill="#dad8db"/>
    <path id="Path_14590" data-name="Path 14590" d="M274.4,328a2.4,2.4,0,0,0-2.4,2.4v12a2.4,2.4,0,0,0,2.4,2.4H296a2.4,2.4,0,0,0,2.4-2.4H278a3.6,3.6,0,0,1-3.6-3.6Z" transform="translate(-231.2 -231.2)" fill="#c8c5c9"/>
    <circle id="Ellipse_3364" data-name="Ellipse 3364" cx="2.4" cy="2.4" r="2.4" transform="translate(51.6 102.8)" fill="#fff"/>
    <path id="Path_14591" data-name="Path 14591" d="M115.332,218.884a7.084,7.084,0,0,1-2.892-.594,1.2,1.2,0,1,1,.984-2.188,5.042,5.042,0,0,0,3.816,0,1.2,1.2,0,1,1,.984,2.189A7.105,7.105,0,0,1,115.332,218.884Z" transform="translate(-94.972 -135.996)" fill="#fff"/>
    <circle id="Ellipse_3365" data-name="Ellipse 3365" cx="1.2" cy="1.2" r="1.2" transform="translate(15.6 74.6)" fill="#4b3f4e"/>
    <circle id="Ellipse_3366" data-name="Ellipse 3366" cx="1.2" cy="1.2" r="1.2" transform="translate(22.8 74.6)" fill="#4b3f4e"/>
    <path id="Path_14592" data-name="Path 14592" d="M339.6,194.887a7.106,7.106,0,0,1-2.892-.593,1.2,1.2,0,1,1,.984-2.189,5.037,5.037,0,0,0,3.816,0,1.2,1.2,0,0,1,.984,2.189A7.106,7.106,0,0,1,339.6,194.887Z" transform="translate(-285.598 -115.599)" fill="#b67f5f"/>
    <circle id="Ellipse_3367" data-name="Ellipse 3367" cx="1.2" cy="1.2" r="1.2" transform="translate(49.2 71)" fill="#64505a"/>
    <circle id="Ellipse_3368" data-name="Ellipse 3368" cx="1.2" cy="1.2" r="1.2" transform="translate(56.4 71)" fill="#64505a"/>
    <path id="Path_14593" data-name="Path 14593" d="M292.8,68.8a4.8,4.8,0,0,1,4.8-4.8H294a6,6,0,0,0-6,6,2.4,2.4,0,0,0,2.4,2.4h2.4Z" transform="translate(-244.8 -6.8)" fill="#785353"/>
  </g>
</svg>
